<svg width="1440" height="574" viewBox="0 0 1440 574" fill="none" xmlns="http://www.w3.org/2000/svg">
<path d="M645.917 1.11523L359.842 573.019" stroke="#E3EFFC" strokeWidth="0.55747" stroke-linecap="round" stroke-linejoin="round"/>
<path d="M424.055 1.11523L0.00146484 213.326" stroke="#E3EFFC" strokeWidth="0.55747" stroke-linecap="round" stroke-linejoin="round"/>
<path d="M350.099 1.11523L0.00146484 141.29" stroke="#E3EFFC" strokeWidth="0.55747" stroke-linecap="round" stroke-linejoin="round"/>
<path d="M276.15 1.11523L0 93.2583" stroke="#E3EFFC" strokeWidth="0.55747" stroke-linecap="round" stroke-linejoin="round"/>
<path d="M498.013 1.11523L0.000488281 333.363" stroke="#E3EFFC" strokeWidth="0.55747" stroke-linecap="round" stroke-linejoin="round"/>
<path d="M202.194 1.11523L0 58.9449" stroke="#E3EFFC" strokeWidth="0.55747" stroke-linecap="round" stroke-linejoin="round"/>
<path d="M54.2819 1.11523L0 13.1923" stroke="#E3EFFC" strokeWidth="0.55747" stroke-linecap="round" stroke-linejoin="round"/>
<path d="M128.238 1.11523L0 33.2076" stroke="#E3EFFC" strokeWidth="0.55747" stroke-linecap="round" stroke-linejoin="round"/>
<path d="M1237.55 1.11523L1440 59.0497" stroke="#E3EFFC" strokeWidth="0.55747" stroke-linecap="round" stroke-linejoin="round"/>
<path d="M719.873 1.11523L719.378 573.019" stroke="#E3EFFC" strokeWidth="0.55747" stroke-linecap="round" stroke-linejoin="round"/>
<path d="M1311.51 1.11523L1440 33.2835" stroke="#E3EFFC" strokeWidth="0.55747" stroke-linecap="round" stroke-linejoin="round"/>
<path d="M1385.46 1.11523L1440 13.2525" stroke="#E3EFFC" strokeWidth="0.55747" stroke-linecap="round" stroke-linejoin="round"/>
<path d="M1163.6 1.11523L1440 93.3987" stroke="#E3EFFC" strokeWidth="0.55747" stroke-linecap="round" stroke-linejoin="round"/>
<path d="M1089.64 1.11523L1440 141.484" stroke="#E3EFFC" strokeWidth="0.55747" stroke-linecap="round" stroke-linejoin="round"/>
<path d="M941.735 1.11523L1440 333.916" stroke="#E3EFFC" strokeWidth="0.55747" stroke-linecap="round" stroke-linejoin="round"/>
<path d="M1015.69 1.11523L1440 213.638" stroke="#E3EFFC" strokeWidth="0.55747" stroke-linecap="round" stroke-linejoin="round"/>
<path d="M793.83 1.11523L1078.92 573.019" stroke="#E3EFFC" strokeWidth="0.55747" stroke-linecap="round" stroke-linejoin="round"/>
<path d="M571.961 1.11523L0.307129 573.019" stroke="#E3EFFC" strokeWidth="0.55747" stroke-linecap="round" stroke-linejoin="round"/>
<path d="M867.779 1.11523L1438.45 573.019" stroke="#E3EFFC" strokeWidth="0.55747" stroke-linecap="round" stroke-linejoin="round"/>
<path d="M1440 79.1638H0.00146484" stroke="#E3EFFC" strokeWidth="0.55747" stroke-linecap="round" stroke-linejoin="round"/>
<path d="M1440 26.8239H0.00146484" stroke="#E3EFFC" strokeWidth="0.55747" stroke-linecap="round" stroke-linejoin="round"/>
<path d="M1440 37.4958H0.00195312" stroke="#E3EFFC" strokeWidth="0.55747" stroke-linecap="round" stroke-linejoin="round"/>
<path d="M1440 49.5642H0.00195312" stroke="#E3EFFC" strokeWidth="0.55747" stroke-linecap="round" stroke-linejoin="round"/>
<path d="M1440 8.79853H0.00195312" stroke="#E3EFFC" strokeWidth="0.55747" stroke-linecap="round" stroke-linejoin="round"/>
<path d="M1440 17.3181H0.00195312" stroke="#E3EFFC" strokeWidth="0.55747" stroke-linecap="round" stroke-linejoin="round"/>
<path d="M1440 421.623H0.00195312" stroke="#E3EFFC" strokeWidth="0.55747" stroke-linecap="round" stroke-linejoin="round"/>
<path d="M1440 97.5759H0.00195312" stroke="#E3EFFC" strokeWidth="0.55747" stroke-linecap="round" stroke-linejoin="round"/>
<path d="M1440 63.3298H0.00195312" stroke="#E3EFFC" strokeWidth="0.55747" stroke-linecap="round" stroke-linejoin="round"/>
<path d="M1440 1.11494H0.00146484" stroke="#E3EFFC" strokeWidth="0.55747" stroke-linecap="round" stroke-linejoin="round"/>
<path d="M1440 119.246H0.00195312" stroke="#E3EFFC" strokeWidth="0.55747" stroke-linecap="round" stroke-linejoin="round"/>
<path d="M1440 145.138H0.00195312" stroke="#E3EFFC" strokeWidth="0.55747" stroke-linecap="round" stroke-linejoin="round"/>
<path d="M1440 331.121H0.00146484" stroke="#E3EFFC" strokeWidth="0.55747" stroke-linecap="round" stroke-linejoin="round"/>
<path d="M1440 176.607H0.00195312" stroke="#E3EFFC" strokeWidth="0.55747" stroke-linecap="round" stroke-linejoin="round"/>
<path d="M1440 215.677H0.00146484" stroke="#E3EFFC" strokeWidth="0.55747" stroke-linecap="round" stroke-linejoin="round"/>
<path d="M1440 265.476H0.00195312" stroke="#E3EFFC" strokeWidth="0.55747" stroke-linecap="round" stroke-linejoin="round"/>
</svg>
